<?xml version="1.0" encoding="UTF-8" standalone="no"?>
<!-- Created with Inkscape (http://www.inkscape.org/) -->

<svg
   width="47.763428mm"
   height="6.7389493mm"
   viewBox="0 0 47.763428 6.7389493"
   version="1.1"
   id="svg906"
   xmlns="http://www.w3.org/2000/svg"
   xmlns:svg="http://www.w3.org/2000/svg">
  <defs
     id="defs903" />
  <g
     id="layer1"
     transform="translate(-42.799112,-117.37688)">
    <g
       id="g187"
       transform="matrix(0.35277777,0,0,-0.35277777,82.46075,121.43253)">
      <path
         d="m 0,0 v 2.802 c 0,1.26 -0.12,2.067 -0.36,2.419 -0.303,0.43 -0.982,0.646 -2.036,0.646 H -3.258 C -4.295,5.867 -4.95,5.672 -5.221,5.28 -5.493,4.89 -5.629,4.062 -5.629,2.802 V 0 c 0,-1.245 0.12,-2.044 0.36,-2.395 0.303,-0.431 0.974,-0.646 2.011,-0.646 h 0.862 c 1.054,0 1.717,0.195 1.988,0.586 C -0.136,-2.063 0,-1.245 0,0 M 5.244,-0.359 C 5.244,-2.993 4.733,-4.846 3.712,-5.915 2.689,-6.984 0.893,-7.52 -1.677,-7.52 h -2.299 c -2.57,0 -4.362,0.531 -5.376,1.593 -1.014,1.061 -1.521,2.917 -1.521,5.568 v 3.545 c 0,2.633 0.507,4.481 1.521,5.543 1.014,1.061 2.806,1.592 5.376,1.592 h 2.299 c 2.57,0 4.366,-0.526 5.389,-1.58 C 4.733,7.687 5.244,5.835 5.244,3.186 Z"
         style="fill:#ffffff;fill-opacity:1;fill-rule:nonzero;stroke:none"
         id="path189" />
    </g>
    <g
       id="g191"
       transform="matrix(0.35277777,0,0,-0.35277777,65.707757,124.00915)">
      <path
         d="m 0,0 h -7.352 l -5.005,11.781 V 0 h -4.933 v 17.41 h 7.328 L -4.933,5.747 V 17.41 H 0 Z"
         style="fill:#ffffff;fill-opacity:1;fill-rule:nonzero;stroke:none"
         id="path193" />
    </g>
    <path
       d="m 58.205903,124.00901 h -1.833386 v -6.14186 h 1.833386 z"
       style="fill:#ffffff;fill-opacity:1;fill-rule:nonzero;stroke:none;stroke-width:0.352778"
       id="path195" />
    <g
       id="g197"
       transform="matrix(0.35277777,0,0,-0.35277777,53.280455,120.17026)">
      <path
         d="m 0,0 v 0.65 c 0,0.643 -0.123,1.08 -0.369,1.313 -0.246,0.233 -0.71,0.35 -1.393,0.35 h -2.357 v -3.952 h 2.357 c 0.667,0 1.127,0.113 1.381,0.338 C -0.127,-1.076 0,-0.643 0,0 M 5.245,-10.882 H 0 v 3.28 c 0,0.639 -0.128,1.079 -0.383,1.318 -0.255,0.239 -0.719,0.359 -1.389,0.359 h -2.347 v -4.957 h -5.149 v 17.41 h 7.257 C 0.638,6.528 2.482,6.208 3.521,5.57 4.67,4.852 5.245,3.55 5.245,1.666 V 0.277 c 0,-2.044 -0.847,-3.329 -2.539,-3.855 0.894,-0.272 1.541,-0.687 1.94,-1.245 0.398,-0.559 0.599,-1.333 0.599,-2.323 z"
         style="fill:#ffffff;fill-opacity:1;fill-rule:nonzero;stroke:none"
         id="path199" />
    </g>
    <g
       id="g201"
       transform="matrix(0.35277777,0,0,-0.35277777,71.638516,119.35411)">
      <path
         d="M 0,0 H -4.454 V -13.195 H -9.651 V 0 H -14.13 V 4.215 H 0 Z"
         style="fill:#ffffff;fill-opacity:1;fill-rule:nonzero;stroke:none"
         id="path203" />
    </g>
    <g
       id="g205"
       transform="matrix(0.35277777,0,0,-0.35277777,77.73822,121.796)">
      <path
         d="m 0,0 c 0,-2.314 -0.52,-3.975 -1.557,-4.98 -1.038,-1.006 -2.73,-1.509 -5.077,-1.509 h -1.581 c -2.57,0 -4.362,0.53 -5.376,1.593 -1.014,1.06 -1.52,2.917 -1.52,5.567 v 3.545 c 0,2.634 0.506,4.481 1.52,5.544 1.014,1.06 2.806,1.592 5.376,1.592 h 1.294 c 2.538,0 4.307,-0.467 5.304,-1.402 C -0.619,9.017 -0.12,7.384 -0.12,5.054 V 4.479 h -5.125 v 0.55 c 0,0.702 -0.167,1.19 -0.503,1.461 -0.335,0.272 -0.91,0.407 -1.724,0.407 -0.99,0 -1.616,-0.203 -1.88,-0.61 C -9.615,5.88 -9.748,5.062 -9.748,3.832 V 1.03 c 0,-1.229 0.112,-2.019 0.336,-2.371 0.287,-0.447 0.933,-0.67 1.94,-0.67 0.846,0 1.433,0.147 1.76,0.443 0.327,0.296 0.491,0.85 0.491,1.664 V 0.719 H 0 Z"
         style="fill:#ffffff;fill-opacity:1;fill-rule:nonzero;stroke:none"
         id="path207" />
    </g>
    <g
       id="g209"
       transform="matrix(0.35277777,0,0,-0.35277777,88.712219,120.17026)">
      <path
         d="m 0,0 v 0.65 c 0,0.643 -0.123,1.08 -0.369,1.313 -0.246,0.233 -0.71,0.35 -1.392,0.35 h -2.358 v -3.952 h 2.358 c 0.666,0 1.126,0.113 1.381,0.338 C -0.127,-1.076 0,-0.643 0,0 M 5.245,-10.882 H 0 v 3.28 c 0,0.639 -0.128,1.079 -0.383,1.318 -0.255,0.239 -0.718,0.359 -1.388,0.359 h -2.348 v -4.957 h -5.147 v 17.41 h 7.255 c 2.65,0 4.494,-0.32 5.532,-0.958 C 4.67,4.852 5.245,3.55 5.245,1.666 V 0.277 c 0,-2.044 -0.846,-3.329 -2.538,-3.855 0.894,-0.272 1.54,-0.687 1.939,-1.245 0.4,-0.559 0.599,-1.333 0.599,-2.323 z"
         style="fill:#ffffff;fill-opacity:1;fill-rule:nonzero;stroke:none"
         id="path211" />
    </g>
    <g
       id="g333"
       transform="matrix(0.35277777,0,0,-0.35277777,46.660686,122.72342)">
      <path
         d="M 0,0 C -1.167,-0.006 -2.225,-0.896 -2.352,-1.979 -2.479,-3.062 -3.538,-3.947 -4.705,-3.947 H -7.21 c -1.167,0 -2.209,0.95 -2.317,2.111 l -1.41,15.171 c -0.108,1.161 0.748,1.971 1.901,1.797 l 5.65,-0.847 c 1.154,-0.173 3.041,-0.17 4.194,0.007 l 5.451,0.834 c 1.153,0.177 2.012,-0.63 1.91,-1.792 L 7.186,2.151 C 7.083,0.989 6.045,0.033 4.879,0.027 Z"
         style="fill:#ffffff;fill-opacity:1;fill-rule:nonzero;stroke:none"
         id="path335" />
    </g>
  </g>
</svg>
